<svg xmlns="http://www.w3.org/2000/svg" viewBox="0 0 32 32"><title>interface-essential-file-error</title><g><path d="M3.05 32h25.9V7.62h-1.52V6.1h-1.52V4.57h-1.53V3.05h-1.52V1.52h-1.53V0H3.05ZM4.57 1.52h15.24v7.62h7.62v21.34H4.57Z" fill="#000000"></path><path fill="#000000" d="M7.62 19.81v1.52h10.67v3.05h1.52v-3.05h3.05v3.05h1.52v-4.57H7.62z"></path><path fill="#000000" d="M22.86 12.19h-1.53v1.52h-1.52v1.53h1.52v1.52h1.53v-1.52h1.52v-1.53h-1.52v-1.52z"></path><path fill="#000000" d="M19.81 24.38h3.05v1.52h-3.05Z"></path><path fill="#000000" d="M9.14 16.76h1.53v-1.52h1.52v-1.53h-1.52v-1.52H9.14v1.52H7.62v1.53h1.52v1.52z"></path></g></svg>