<svg xmlns="http://www.w3.org/2000/svg" viewBox="0 0 32 32"><title>content-files-book</title><g><path fill="#000000" d="M3.81 1.52h24.38v1.53H5.34v1.52h22.85V6.1H3.81v1.52h1.53v22.86H3.81V32h25.91v-1.52H6.86V7.62h22.86v22.86h1.52V6.1h-1.52V1.52h1.52V0H3.81v1.52z"></path><path fill="#000000" d="M23.62 24.38h1.53v1.53h-1.53Z"></path><path fill="#000000" d="M25.15 12.19h-1.53v-1.52H12.96v1.52h-1.53v1.53H9.91v10.66h1.52v-6.09h1.53v-1.53h1.52v-1.52h7.62v1.52h1.52v1.53h1.53v6.09h1.52V13.72h-1.52v-1.53z"></path><path fill="#000000" d="M12.96 25.91h10.66v1.52H12.96Z"></path><path fill="#000000" d="M20.57 21.33h1.53v1.53h-1.53Z"></path><path fill="#000000" d="M20.57 18.29h1.53v1.52h-1.53Z"></path><path fill="#000000" d="M16 22.86h4.57v1.52H16Z"></path><path fill="#000000" d="M14.48 21.33H16v1.53h-1.52Z"></path><path fill="#000000" d="M14.48 18.29H16v1.52h-1.52Z"></path><path fill="#000000" d="M11.43 24.38h1.53v1.53h-1.53Z"></path><path fill="#000000" d="M2.29 28.95h1.52v1.53H2.29Z"></path><path fill="#000000" d="M2.29 1.52h1.52v1.53H2.29Z"></path><path fill="#000000" d="M2.29 6.1h1.52V4.57H2.29V3.05H.76v25.9h1.53V6.1z"></path></g></svg>