<?xml version="1.0" standalone="no"?><!DOCTYPE svg PUBLIC "-//W3C//DTD SVG 1.1//EN" "http://www.w3.org/Graphics/SVG/1.1/DTD/svg11.dtd"><svg t="1740752460006" class="icon" viewBox="0 0 1024 1024" version="1.1" xmlns="http://www.w3.org/2000/svg" p-id="2581" id="mx_n_1740752460009" xmlns:xlink="http://www.w3.org/1999/xlink" width="200" height="200"><path d="M945.230769 236.307692h78.769231v78.769231h-78.769231zM945.230769 157.538462h78.769231v78.76923h-78.769231zM945.230769 78.769231h78.769231v78.769231h-78.769231zM945.230769 0h78.769231v78.769231h-78.769231zM866.461538 315.076923h78.769231v78.769231h-78.769231z" fill="#1E2028" p-id="2582" data-spm-anchor-id="a313x.collections_detail.0.i43.34093a81ZY90qm" class=""></path><path d="M866.461538 236.307692h78.769231v78.769231h-78.769231z" fill="#ffffff" p-id="2583" data-spm-anchor-id="a313x.collections_detail.0.i44.34093a81ZY90qm" class="selected"></path><path d="M866.461538 157.538462h78.769231v78.76923h-78.769231zM866.461538 78.769231h78.769231v78.769231h-78.769231z" fill="#ffffff" p-id="2584" data-spm-anchor-id="a313x.collections_detail.0.i10.34093a81ZY90qm" class="selected"></path><path d="M866.461538 0h78.769231v78.769231h-78.769231zM787.692308 393.846154h78.76923v78.769231h-78.76923z" fill="#1E2028" p-id="2585"></path><path d="M787.692308 315.076923h78.76923v78.769231h-78.76923z" fill="#ffffff" p-id="2586" data-spm-anchor-id="a313x.collections_detail.0.i45.34093a81ZY90qm" class="selected"></path><path d="M787.692308 236.307692h78.76923v78.769231h-78.76923z" fill="#ffffff" p-id="2587" data-spm-anchor-id="a313x.collections_detail.0.i17.34093a81ZY90qm" class="selected"></path><path d="M787.692308 157.538462h78.76923v78.76923h-78.76923z" fill="#FFFFFF" p-id="2588"></path><path d="M787.692308 78.769231h78.76923v78.769231h-78.76923z" fill="#ffffff" p-id="2589" data-spm-anchor-id="a313x.collections_detail.0.i33.34093a81ZY90qm" class="selected"></path><path d="M787.692308 0h78.76923v78.769231h-78.76923zM708.923077 472.615385h78.769231v78.76923h-78.769231z" fill="#1E2028" p-id="2590"></path><path d="M708.923077 393.846154h78.769231v78.769231h-78.769231z" fill="#ffffff" p-id="2591" data-spm-anchor-id="a313x.collections_detail.0.i41.34093a81ZY90qm" class="selected"></path><path d="M708.923077 315.076923h78.769231v78.769231h-78.769231z" fill="#ffffff" p-id="2592" data-spm-anchor-id="a313x.collections_detail.0.i42.34093a81ZY90qm" class="selected"></path><path d="M708.923077 236.307692h78.769231v78.769231h-78.769231z" fill="#FFFFFF" p-id="2593"></path><path d="M708.923077 157.538462h78.769231v78.76923h-78.769231z" fill="#ffffff" p-id="2594" data-spm-anchor-id="a313x.collections_detail.0.i31.34093a81ZY90qm" class="selected"></path><path d="M708.923077 78.769231h78.769231v78.769231h-78.769231z" fill="#ffffff" p-id="2595" data-spm-anchor-id="a313x.collections_detail.0.i32.34093a81ZY90qm" class="selected"></path><path d="M708.923077 0h78.769231v78.769231h-78.769231zM630.153846 551.384615h78.769231v78.769231h-78.769231z" fill="#1E2028" p-id="2596"></path><path d="M630.153846 472.615385h78.769231v78.76923h-78.769231z" fill="#ffffff" p-id="2597" data-spm-anchor-id="a313x.collections_detail.0.i16.34093a81ZY90qm" class="selected"></path><path d="M630.153846 393.846154h78.769231v78.769231h-78.769231z" fill="#ffffff" p-id="2598" data-spm-anchor-id="a313x.collections_detail.0.i40.34093a81ZY90qm" class="selected"></path><path d="M630.153846 315.076923h78.769231v78.769231h-78.769231z" fill="#FFFFFF" p-id="2599"></path><path d="M630.153846 236.307692h78.769231v78.769231h-78.769231z" fill="#ffffff" p-id="2600" data-spm-anchor-id="a313x.collections_detail.0.i34.34093a81ZY90qm" class="selected"></path><path d="M630.153846 157.538462h78.769231v78.76923h-78.769231z" fill="#ffffff" p-id="2601" data-spm-anchor-id="a313x.collections_detail.0.i30.34093a81ZY90qm" class="selected"></path><path d="M630.153846 78.769231h78.769231v78.769231h-78.769231zM551.384615 866.461538h78.769231v78.769231h-78.769231zM551.384615 787.692308h78.769231v78.76923h-78.769231zM551.384615 630.153846h78.769231v78.769231h-78.769231z" fill="#1E2028" p-id="2602"></path><path d="M551.384615 551.384615h78.769231v78.769231h-78.769231z" fill="#ffffff" p-id="2603" data-spm-anchor-id="a313x.collections_detail.0.i38.34093a81ZY90qm" class="selected"></path><path d="M551.384615 472.615385h78.769231v78.76923h-78.769231z" fill="#ffffff" p-id="2604" data-spm-anchor-id="a313x.collections_detail.0.i39.34093a81ZY90qm" class="selected"></path><path d="M551.384615 393.846154h78.769231v78.769231h-78.769231z" fill="#FFFFFF" p-id="2605"></path><path d="M551.384615 315.076923h78.769231v78.769231h-78.769231z" fill="#ffffff" p-id="2606" data-spm-anchor-id="a313x.collections_detail.0.i35.34093a81ZY90qm" class="selected"></path><path d="M551.384615 236.307692h78.769231v78.769231h-78.769231z" fill="#ffffff" p-id="2607" data-spm-anchor-id="a313x.collections_detail.0.i15.34093a81ZY90qm" class="selected"></path><path d="M551.384615 157.538462h78.769231v78.76923h-78.769231zM472.615385 866.461538h78.76923v78.769231h-78.76923z" fill="#1E2028" p-id="2608"></path><path d="M472.615385 787.692308h78.76923v78.76923h-78.76923z" fill="#ffffff" p-id="2609" data-spm-anchor-id="a313x.collections_detail.0.i21.34093a81ZY90qm" class="selected"></path><path d="M472.615385 708.923077h78.76923v78.769231h-78.76923z" fill="#1E2028" p-id="2610"></path><path d="M472.615385 630.153846h78.76923v78.769231h-78.76923z" fill="#ffffff" p-id="2611" data-spm-anchor-id="a313x.collections_detail.0.i37.34093a81ZY90qm" class="selected"></path><path d="M472.615385 551.384615h78.76923v78.769231h-78.76923z" fill="#ffffff" p-id="2612" data-spm-anchor-id="a313x.collections_detail.0.i36.34093a81ZY90qm" class="selected"></path><path d="M472.615385 472.615385h78.76923v78.76923h-78.76923z" fill="#FFFFFF" p-id="2613"></path><path d="M472.615385 393.846154h78.76923v78.769231h-78.76923z" fill="#ffffff" p-id="2614" data-spm-anchor-id="a313x.collections_detail.0.i14.34093a81ZY90qm" class="selected"></path><path d="M472.615385 315.076923h78.76923v78.769231h-78.76923z" fill="#ffffff" p-id="2615" data-spm-anchor-id="a313x.collections_detail.0.i29.34093a81ZY90qm" class="selected"></path><path d="M472.615385 236.307692h78.76923v78.769231h-78.76923zM393.846154 866.461538h78.769231v78.769231h-78.769231z" fill="#1E2028" p-id="2616"></path><path d="M393.846154 787.692308h78.769231v78.76923h-78.769231z" fill="#ffffff" p-id="2617" data-spm-anchor-id="a313x.collections_detail.0.i22.34093a81ZY90qm" class="selected"></path><path d="M393.846154 708.923077h78.769231v78.769231h-78.769231z" fill="#ffffff" p-id="2618" data-spm-anchor-id="a313x.collections_detail.0.i20.34093a81ZY90qm" class="selected"></path><path d="M393.846154 630.153846h78.769231v78.769231h-78.769231z" fill="#1E2028" p-id="2619"></path><path d="M393.846154 551.384615h78.769231v78.769231h-78.769231zM393.846154 472.615385h78.769231v78.76923h-78.769231z" fill="#ffffff" p-id="2620" data-spm-anchor-id="a313x.collections_detail.0.i26.34093a81ZY90qm" class="selected"></path><path d="M393.846154 393.846154h78.769231v78.769231h-78.769231z" fill="#ffffff" p-id="2621" data-spm-anchor-id="a313x.collections_detail.0.i28.34093a81ZY90qm" class="selected"></path><path d="M393.846154 315.076923h78.769231v78.769231h-78.769231zM315.076923 787.692308h78.769231v78.76923h-78.769231z" fill="#1E2028" p-id="2622"></path><path d="M315.076923 708.923077h78.769231v78.769231h-78.769231zM315.076923 630.153846h78.769231v78.769231h-78.769231z" fill="#ffffff" p-id="2623" data-spm-anchor-id="a313x.collections_detail.0.i19.34093a81ZY90qm" class="selected"></path><path d="M315.076923 551.384615h78.769231v78.769231h-78.769231z" fill="#1E2028" p-id="2624"></path><path d="M315.076923 472.615385h78.769231v78.76923h-78.769231z" fill="#ffffff" p-id="2625" data-spm-anchor-id="a313x.collections_detail.0.i27.34093a81ZY90qm" class="selected"></path><path d="M315.076923 393.846154h78.769231v78.769231h-78.769231zM236.307692 787.692308h78.769231v78.76923h-78.769231zM236.307692 708.923077h78.769231v78.769231h-78.769231z" fill="#1E2028" p-id="2626"></path><path d="M236.307692 630.153846h78.769231v78.769231h-78.769231zM236.307692 551.384615h78.769231v78.769231h-78.769231z" fill="#ffffff" p-id="2627" data-spm-anchor-id="a313x.collections_detail.0.i18.34093a81ZY90qm" class="selected"></path><path d="M236.307692 472.615385h78.769231v78.76923h-78.769231zM157.538462 866.461538h78.76923v78.769231H157.538462z" fill="#1E2028" p-id="2628"></path><path d="M157.538462 787.692308h78.76923v78.76923H157.538462z" fill="#ffffff" p-id="2629" data-spm-anchor-id="a313x.collections_detail.0.i25.34093a81ZY90qm" class="selected"></path><path d="M157.538462 708.923077h78.76923v78.769231H157.538462zM157.538462 630.153846h78.76923v78.769231H157.538462z" fill="#1E2028" p-id="2630"></path><path d="M157.538462 551.384615h78.76923v78.769231H157.538462zM157.538462 472.615385h78.76923v78.76923H157.538462z" fill="#ffffff" p-id="2631" data-spm-anchor-id="a313x.collections_detail.0.i23.34093a81ZY90qm" class="selected"></path><path d="M157.538462 393.846154h78.76923v78.769231H157.538462zM78.769231 945.230769h78.769231v78.769231H78.769231z" fill="#1E2028" p-id="2632"></path><path d="M78.769231 866.461538h78.769231v78.769231H78.769231z" fill="#ffffff" p-id="2633" data-spm-anchor-id="a313x.collections_detail.0.i24.34093a81ZY90qm" class="selected"></path><path d="M78.769231 787.692308h78.769231v78.76923H78.769231zM78.769231 551.384615h78.769231v78.769231H78.769231zM78.769231 472.615385h78.769231v78.76923H78.769231zM78.769231 393.846154h78.769231v78.769231H78.769231zM0 945.230769h78.769231v78.769231H0zM0 866.461538h78.769231v78.769231H0z" fill="#1E2028" p-id="2634"></path></svg>